<svg width="83" height="55" viewBox="0 0 83 55" fill="none" xmlns="http://www.w3.org/2000/svg">
<path d="M33.1553 28.4879C36.5765 29.9029 38.2871 32.4375 38.2871 36.0915C38.2871 39.4411 37.1138 42.0742 34.7673 43.9908C32.3134 45.9969 28.8295 47 24.3156 47H21.8438V10.4325H23.9126C28.319 10.4325 31.6865 11.5341 34.015 13.7373C36.1466 15.7434 37.2123 18.3496 37.2123 21.5559C37.2123 24.7442 35.8869 27.0549 33.2359 28.4879H33.1553ZM2.92863 10.4325H17.3837V46.9463H2.92863V10.4325ZM61.8375 10.4325H78.4151V28.8372L61.8375 10.4325ZM44.2926 21.2335H44.1314C44.1314 17.5436 45.1345 14.8209 47.1407 13.0656C49.1468 11.3102 52.2366 10.4325 56.4102 10.4325L78.4151 37.1394C78.4151 40.686 77.4568 43.2206 75.5403 44.7431C73.6774 46.2298 70.6323 46.9731 66.4051 46.9731L44.2926 21.2335ZM44.212 28.4879L60.1717 47H44.212V28.4879Z" fill="#831843"/>
</svg>
